<svg xmlns="http://www.w3.org/2000/svg" width="103.25" height="131.215" viewBox="0 0 103.25 131.215">
  <defs>
    <style>
      .cls-1 {
        fill: #fff;
        fill-rule: evenodd;
      }
    </style>
  </defs>
  <path id="title_c.svg" data-name="title/c.svg" class="cls-1" d="M647.6,1081.34c15.218,0,27.9-3.8,38.225-11.24v-13.95c-10.507,8.52-23.007,12.69-37.681,12.69s-27.174-5.08-37.138-15.05-14.855-22.65-14.855-38.06c0-15.22,4.891-27.908,14.855-37.876,9.964-10.149,22.1-15.224,36.775-15.224a64.536,64.536,0,0,1,35.326,10.693V959.549c-9.963-6.343-21.739-9.424-35.507-9.424-18.659,0-34.058,6.162-46.558,18.667-12.318,12.325-18.478,27.911-18.478,46.938s6.16,34.8,18.478,47.13C613.54,1075.18,628.939,1081.34,647.6,1081.34Z" transform="translate(-582.562 -950.125)"/>
</svg>
