<svg xmlns="http://www.w3.org/2000/svg" width="139.656" height="133.939" viewBox="0 0 139.656 133.939">
  <defs>
    <style>
      .cls-1 {
        fill: #fff;
        fill-rule: evenodd;
      }
    </style>
  </defs>
  <path id="title_f.svg" data-name="title/f.svg" class="cls-1" d="M926.66,1082.97v-13.05c20.652-.36,36.413-5.8,47.1-16.31s16.123-23.2,16.123-38.24a52.031,52.031,0,0,0-16.123-38.422c-10.688-10.512-26.449-15.949-47.1-16.311v-11.6H913.254v11.6c-20.652.362-36.413,5.8-47.1,16.492a52.149,52.149,0,0,0-15.942,38.421c0,15.04,5.253,27.91,15.942,38.24s26.449,15.77,47.1,16.13v13.05H926.66Zm-13.406-25.19c-16.667-.18-28.986-4.35-37.138-12.51s-12.137-18.12-12.137-29.9,3.985-21.929,12.137-30.085,20.471-12.324,37.138-12.5v85Zm13.406-85c16.848,0.181,29.166,4.349,37.319,12.5s12.137,18.305,12.137,30.085c0,21.21-13.224,41.87-49.456,42.41v-85Z" transform="translate(-850.219 -949.031)"/>
</svg>
