<svg xmlns="http://www.w3.org/2000/svg" width="127.531" height="131.215" viewBox="0 0 127.531 131.215">
  <defs>
    <style>
      .cls-1 {
        fill: #fff;
        fill-rule: evenodd;
      }
    </style>
  </defs>
  <path id="title_o.svg" data-name="title/o.svg" class="cls-1" d="M296.79,968.974c-12.137,12.5-18.115,28.092-18.115,46.756s5.978,34.44,18.115,46.94,27.356,18.67,45.653,18.67,33.333-6.16,45.471-18.67,18.3-28.27,18.3-46.94-6.16-34.251-18.3-46.756-27.174-18.849-45.471-18.849S308.928,956.468,296.79,968.974Zm9.964,84.636c-9.6-10.15-14.492-22.83-14.492-37.88s4.891-27.726,14.492-37.876,21.558-15.224,35.689-15.224,26.087,5.075,35.688,15.224,14.493,22.836,14.493,37.876-4.892,27.73-14.493,37.88-21.558,15.23-35.688,15.23S316.356,1063.76,306.754,1053.61Z" transform="translate(-278.688 -950.125)"/>
</svg>
