<svg id="Layer_1" data-name="Layer 1" xmlns="http://www.w3.org/2000/svg" viewBox="0 0 206 60.29"><defs><style>.cls-1{fill:#fff;}</style></defs><title>Artboard 2</title><path class="cls-1" d="M195,32c-1-3,8-32,8-32H191c-2,0-15,24-33,32C67,31,47,32,28,32S8,40,8,40s-8,3-8,6,8,7,14,7c2.67,0,22.61.2,45.75.42v.1c0,2.1,0,4.22,0,4.22a2.25,2.25,0,0,0,2,2.16s5,.39,8.81.39a49.69,49.69,0,0,0,8.85-1.12,2.7,2.7,0,0,0,1.81-1.6c3.32-.24,6.28-.59,8.73-1q0-1.42,0-2.85c19.08.17,36.3.3,44,.3,25,0,72-13,72-17C206,35,202,33,195,32Z"/></svg>