<svg id="Layer_1" data-name="Layer 1" xmlns="http://www.w3.org/2000/svg" viewBox="0 0 32.65 32.3"><defs><style>.cls-1{fill:#fff;}</style></defs><title>duende</title><path class="cls-1" d="M.23,6.28A13.16,13.16,0,0,1,2.46,3.67c.71-.6,1.47-1.79,1.63-1.79A18,18,0,0,1,8.59.42C10.65.2,11.47-.4,13.2.42a40.34,40.34,0,0,1,4.34,2c.6.49.43,1.36,1.41,1.68a20.24,20.24,0,0,0,4.56,1.36,5.62,5.62,0,0,1,4,1.85c1,1.14,3.15,3,3.85,4.56a10.53,10.53,0,0,1,.87,2.71,18.38,18.38,0,0,1,.38,3.53c-.11,1-1.19,6.4-2.77,7.82a29.5,29.5,0,0,1-6.4,4c-1.14.38-1.9,1.47-3.15,2s-4.29.81-5.54-.71-1.36-2.55-1.9-3.2a5.83,5.83,0,0,0-3-2.23c-1.52-.38-4.23-.87-5.21-1.52s-2.33-.65-3.26-2.93-1.68-3.74-1.19-5A11.1,11.1,0,0,0,1,11.43C.72,10.29.1,10.24,0,9A6.34,6.34,0,0,1,.23,6.28Z"/></svg>