<svg id="Layer_1" data-name="Layer 1" xmlns="http://www.w3.org/2000/svg" viewBox="0 0 7.82 30"><defs><style>.cls-1{fill:#fff;}</style></defs><title>fau-2</title><path class="cls-1" d="M3.91,28.51a3.75,3.75,0,0,1,1.23.2c.13-1.08,2-17.09-1.23-28.7C.72,11.61,2.55,27.63,2.68,28.7A3.75,3.75,0,0,1,3.91,28.51Z"/><polygon class="cls-1" points="5.69 29.19 6.57 30 7.82 30 7.42 24.41 5.68 21.55 5.14 28.7 5.29 29.18 5.69 29.19"/><polygon class="cls-1" points="2.13 29.19 1.25 30 0 30 0.39 24.41 2.14 21.55 2.68 28.7 2.52 29.18 2.13 29.19"/></svg>