<svg id="Layer_1" data-name="Layer 1" xmlns="http://www.w3.org/2000/svg" viewBox="0 0 64.19 37.06"><defs><style>.cls-1{fill:#fff;}</style></defs><title>hubble</title><path class="cls-1" d="M61.72,14.19h-5L58.2,9.61h-14l-.41-.13,0,.13H35.89L34.54,4h.21V2.73H33.57A4,4,0,0,0,32.37.07.14.14,0,0,0,32.27,0c-.28,0-.5,1.3-.5,2.91s.22,2.91.5,2.91c0,0,.11-.06.11-.06a4,4,0,0,0,1.09-1.93V4H34l1.35,5.59H31.52l-1.93,5.94h7.17l.2.84H12.38c-.43,0-.83.54-1.15,1.46l.53-2.31L5.17,14C2.92,13.5.73,14.6.3,16.46l-.23,1c-.43,1.86,1.05,3.82,3.3,4.33L10,23.31,10.73,20a22.68,22.68,0,0,0-.23,3.29c0,3.8.84,6.87,1.87,6.87H37l-.27.84H24.58l-1.93,5.94H35.29l.41.13,0-.13H49.32l1.49-4.58H61.72c1.36,0,2.47-4.06,2.47-9.08S63.08,14.19,61.72,14.19Zm-24.4,1.36h3.17a8.41,8.41,0,0,0-.31.84H37.52Zm.62,14.59h2.24a8.41,8.41,0,0,0,.31.84H37.67Z"/></svg>