<svg id="Layer_1" data-name="Layer 1" xmlns="http://www.w3.org/2000/svg" viewBox="0 0 207.13 114.81"><defs><style>.cls-1{fill:#fff;}</style></defs><title>iss</title><rect class="cls-1" x="77.01" y="40.33" width="23.8" height="8.49"/><rect class="cls-1" x="106.32" y="40.33" width="23.8" height="8.49" transform="translate(236.43 89.16) rotate(-180)"/><polygon class="cls-1" points="0 0 17.91 4.56 30.62 58.91 14.83 53.61 0 0"/><polygon class="cls-1" points="31.12 0 49.02 4.56 58.13 59.05 42.34 53.75 31.12 0"/><polygon class="cls-1" points="16.79 75.82 36.67 75.82 45.29 114.81 27.7 114.81 16.79 75.82"/><polygon class="cls-1" points="43.1 75.82 62.95 75.82 68.81 114.81 51.22 114.81 43.1 75.82"/><rect class="cls-1" x="45.54" y="3.19" width="1" height="62.44" transform="translate(-5.5 8.96) rotate(-10.5)"/><rect class="cls-1" x="16.57" y="2.73" width="1" height="63.36" transform="translate(-7.98 5.29) rotate(-14.31)"/><rect class="cls-1" x="30.32" y="69.27" width="1" height="45.41" transform="translate(-21.42 10.24) rotate(-14.06)"/><rect class="cls-1" x="55.41" y="69.6" width="1" height="44.75" transform="translate(-15.36 11.31) rotate(-10.17)"/><polygon class="cls-1" points="207.13 0 189.22 4.56 176.51 58.91 192.29 53.61 207.13 0"/><polygon class="cls-1" points="176.01 0 158.1 4.56 149 59.05 164.79 53.75 176.01 0"/><polygon class="cls-1" points="190.34 75.82 170.46 75.82 161.84 114.81 179.43 114.81 190.34 75.82"/><polygon class="cls-1" points="164.03 75.82 144.18 75.82 138.31 114.81 155.9 114.81 164.03 75.82"/><path class="cls-1" d="M186.18,63.67H21c-1.05,0-1.91,1.59-1.91,3.55s.85,3.55,1.91,3.55H186.18c1.05,0,1.91-1.59,1.91-3.55S187.23,63.67,186.18,63.67Z"/><rect class="cls-1" x="129.84" y="33.79" width="62.44" height="1" transform="translate(98.07 186.43) rotate(-79.52)"/><rect class="cls-1" x="158.36" y="33.79" width="63.36" height="1" transform="translate(109.68 209.88) rotate(-75.64)"/><rect class="cls-1" x="153.91" y="90.38" width="45.41" height="1" transform="translate(45.68 240.25) rotate(-75.99)"/><rect class="cls-1" x="129.15" y="90.38" width="44.75" height="1" transform="translate(35.42 224.08) rotate(-79.88)"/><polygon class="cls-1" points="73.67 45.02 67 45.02 67 63.67 73.67 63.67 80.35 63.67 87.02 63.67 87.02 45.02 80.35 45.02 73.67 45.02"/><polygon class="cls-1" points="133.46 45.02 126.78 45.02 120.11 45.02 120.11 63.67 126.78 63.67 133.46 63.67 140.13 63.67 140.13 45.02 133.46 45.02"/><path class="cls-1" d="M103.55,42.3c-1.68,0-3,1-3,2.28V64.85h6.1V44.58C106.6,43.32,105.24,42.3,103.55,42.3Z"/><path class="cls-1" d="M121.16,80h-.51c0-1.28-1.39-2.31-3.1-2.31s-3.1,1-3.1,2.31h-4.91a2.11,2.11,0,0,0-1.65.94V70.31c0-1.79-1.94-3.25-4.34-3.25s-4.34,1.45-4.34,3.25V81A2.1,2.1,0,0,0,97.57,80H90.14c-1.35,0-2.45,1.59-2.45,3.55s1.1,3.55,2.45,3.55h7.43a2.1,2.1,0,0,0,1.64-.93v3.11c0,1.79,1.94,3.25,4.34,3.25s4.34-1.45,4.34-3.25V86.19a2.1,2.1,0,0,0,1.65.94h11.61c1.35,0,2.45-1.59,2.45-3.55S122.51,80,121.16,80Z"/></svg>