<svg id="Layer_1" data-name="Layer 1" xmlns="http://www.w3.org/2000/svg" viewBox="0 0 77.75 50"><defs><style>.cls-1{fill:#fff;}</style></defs><title>iss_1</title><rect class="cls-1" x="15.64" width="3.77" height="22.94"/><rect class="cls-1" x="11.38" width="3.77" height="22.94"/><rect class="cls-1" x="4.25" width="3.77" height="22.94"/><rect class="cls-1" width="3.77" height="22.94"/><rect class="cls-1" x="15.64" y="27.06" width="3.77" height="22.94"/><rect class="cls-1" x="11.38" y="27.06" width="3.77" height="22.94"/><rect class="cls-1" x="4.25" y="27.06" width="3.77" height="22.94"/><rect class="cls-1" y="27.06" width="3.77" height="22.94"/><rect class="cls-1" x="58.34" width="3.77" height="22.94"/><rect class="cls-1" x="62.59" width="3.77" height="22.94"/><rect class="cls-1" x="69.72" width="3.77" height="22.94"/><rect class="cls-1" x="73.98" width="3.77" height="22.94"/><rect class="cls-1" x="58.34" y="27.06" width="3.77" height="22.94"/><rect class="cls-1" x="62.59" y="27.06" width="3.77" height="22.94"/><rect class="cls-1" x="69.72" y="27.06" width="3.77" height="22.94"/><rect class="cls-1" x="73.98" y="27.06" width="3.77" height="22.94"/><path class="cls-1" d="M73.49,22.94v.57H62.59v-.57h-.48v.57H15.64v-.57h-.48v.57H4.25v-.57H3.77v.57H1.58c-.44,0-.8.66-.8,1.48s.36,1.48.8,1.48H3.77v.57h.48v-.57h10.9v.57h.48v-.57H37.15V27.8H27.66v1.62h9.68a1.38,1.38,0,0,0,.26.29v1.23a1.45,1.45,0,0,0,.17,1.72l-.09,1.17H33.3v.8h4.32l0,.41c0,.52.58.94,1.29.94s1.29-.42,1.29-.94l0-.41h4.32v-.8H40.07L40,32.65a1.45,1.45,0,0,0,.17-1.72V29.7a1.38,1.38,0,0,0,.26-.29h9.68V27.8H40.6V26.48H62.11v.57h.48v-.57h10.9v.57H74v-.57h2.19c.44,0,.8-.66.8-1.48s-.36-1.48-.8-1.48H74v-.57Z"/></svg>