<svg id="Layer_1" data-name="Layer 1" xmlns="http://www.w3.org/2000/svg" viewBox="0 0 103.61 112.09"><defs><style>.cls-1{fill:#fff;}</style></defs><title>mir</title><rect class="cls-1" x="41.86" y="28.73" width="12.44" height="26.5"/><rect class="cls-1" x="41.86" y="70.01" width="12.44" height="26.5" transform="translate(96.16 166.52) rotate(180)"/><polygon class="cls-1" points="54.3 96.51 48.08 109.1 41.86 96.51 54.3 96.51"/><rect class="cls-1" x="21.22" y="49.37" width="12.44" height="26.5" transform="translate(-35.18 90.06) rotate(-90)"/><rect class="cls-1" x="62.5" y="49.37" width="12.44" height="26.5" transform="translate(131.34 -6.1) rotate(90)"/><polygon class="cls-1" points="81.97 56.4 94.56 62.62 81.97 68.84 81.97 56.4"/><polygon class="cls-1" points="40.69 56.4 48.08 62.62 40.69 68.84 40.69 56.4"/><polygon class="cls-1" points="41.86 70.01 48.16 62.62 54.3 70.01 41.86 70.01"/><polygon class="cls-1" points="54.3 55.23 48.16 62.82 41.86 55.23 54.3 55.23"/><polygon class="cls-1" points="55.47 68.84 48.08 62.62 55.47 56.4 55.47 68.84"/><rect class="cls-1" x="-0.38" y="9.7" width="45.94" height="8.97" transform="translate(8.6 -8.53) rotate(26.25)"/><rect class="cls-1" x="8.57" y="31.35" width="32.92" height="8.97" transform="translate(3.78 -2.36) rotate(5.84)"/><rect class="cls-1" x="55" y="31.35" width="32.92" height="8.97" transform="translate(146.21 64.22) rotate(174.16)"/><rect class="cls-1" x="50.58" y="9.7" width="45.94" height="8.97" transform="translate(145.8 -5.63) rotate(153.75)"/><circle class="cls-1" cx="48.08" cy="108.3" r="3.79"/><circle class="cls-1" cx="48.08" cy="102.14" r="5.81"/><circle class="cls-1" cx="48.08" cy="62.62" r="6.43"/><rect class="cls-1" x="88.27" y="58.98" width="15.34" height="7.27" rx="1.05" ry="1.05"/><circle class="cls-1" cx="76.6" cy="68.84" r="2.33"/><circle class="cls-1" cx="55.47" cy="57.61" r="2.33"/><circle class="cls-1" cx="83.02" cy="67.22" r="2.33"/><polygon class="cls-1" points="41.18 97.31 4.98 97.31 6.62 89.13 42.81 89.13 41.18 97.31"/><polygon class="cls-1" points="44.1 77.15 8.1 80.96 8.87 72.65 44.86 68.84 44.1 77.15"/><polygon class="cls-1" points="90.03 96.37 53.89 98.33 55.08 90.07 91.22 88.11 90.03 96.37"/><polygon class="cls-1" points="87.7 82.38 51.78 77.93 54.41 70.01 90.33 74.45 87.7 82.38"/><polygon class="cls-1" points="7.48 65.52 14.19 68.84 14.19 56.4 7.48 59.72 7.48 65.52"/><polygon class="cls-1" points="41.86 28.73 54.3 28.73 48.85 17.69 47.32 17.69 41.86 28.73"/></svg>