<svg id="Layer_1" data-name="Layer 1" xmlns="http://www.w3.org/2000/svg" viewBox="0 0 20.12 20.78"><defs><style>.cls-1{fill:#fff;}</style></defs><title>sputnik</title><circle class="cls-1" cx="2.06" cy="10.97" r="2.06"/><path class="cls-1" d="M1.57,9.26A.13.13,0,0,1,1.5,9l12.8-9a.13.13,0,0,1,.17,0,.13.13,0,0,1,0,.17l-12.8,9Z"/><path class="cls-1" d="M4,10.52a.13.13,0,0,1,0-.25L19,9h0a.13.13,0,0,1,0,.25L4,10.52Z"/><path class="cls-1" d="M20,11.85h0L1.16,11.44a.13.13,0,0,1,0-.25h0L20,11.6a.13.13,0,0,1,0,.25Z"/><path class="cls-1" d="M15.29,20.78l-.06,0-13.94-8a.12.12,0,0,1,0-.17.12.12,0,0,1,.17,0l13.94,8a.12.12,0,0,1-.06.23Z"/></svg>