<svg id="Layer_1" data-name="Layer 1" xmlns="http://www.w3.org/2000/svg" viewBox="0 0 9.85 10"><defs><style>.cls-1{fill:#fff;}</style></defs><title>ts26</title><path class="cls-1" d="M1.07,5.2s-.26-.83,0-1.13S1.62,3,1.92,2.61A8.11,8.11,0,0,1,3,1.36C3.36,1,3.71.36,4.34.25a10.92,10.92,0,0,1,3-.18A3.9,3.9,0,0,1,8.16.6a8.9,8.9,0,0,1,1,1.18,1.83,1.83,0,0,1,.66,1.46,9.6,9.6,0,0,0-.2,1.7c.06.3-.61.94-.72,1.2A6,6,0,0,1,7,7.84c-.44.07-.66.22-.74.41A7.39,7.39,0,0,1,4,9.69c-.39,0-.52.24-1,.3A2.23,2.23,0,0,1,1.75,9.8C1.57,9.65,1,9.6.81,9.36A5.16,5.16,0,0,1,.14,8.3a1.33,1.33,0,0,1,0-1.18C.4,6.71.25,6.2.57,5.81S1,5.42,1.07,5.2Z"/></svg>