<svg id="Layer_1" data-name="Layer 1" xmlns="http://www.w3.org/2000/svg" viewBox="0 0 57.01 25"><defs><style>.cls-1{fill:#fff;}</style></defs><title>vostok-1</title><path class="cls-1" d="M56,18.52H48.29l.86-1.24L53,14.6V10.4L49.14,7.72l-.86-1.24H56A1,1,0,1,0,56,4.4H46.61a1,1,0,0,0-.5.14L40.92,0,34.75,2.76H33.45a1.91,1.91,0,1,0-3.64.4,1.9,1.9,0,0,0,.53,2.21l-.06.05a12,12,0,0,0-19.88.66V6H1A.54.54,0,1,1,1,4.9H9V4.4H1A1,1,0,1,0,1,6.48h9.13a12,12,0,0,0-1.32,3.3L7,10.64v3.72l1.83.85a12,12,0,0,0,1.32,3.3H1A1,1,0,1,0,1,20.6H9v-.5H1A.54.54,0,1,1,1,19H10.4v-.1a12,12,0,0,0,19.88.66l.06.05a1.9,1.9,0,0,0-.53,2.21,1.92,1.92,0,1,0,3.64.4h1.29L40.92,25l5.19-4.55a1,1,0,0,0,.5.14H56a1,1,0,1,0,0-2.08ZM46.61,4.9H56A.54.54,0,1,1,56,6H47.75L46.54,4.92ZM56,20.1H46.54L47.75,19H56a.54.54,0,1,1,0,1.08Z"/></svg>