<svg id="Layer_1" data-name="Layer 1" xmlns="http://www.w3.org/2000/svg" viewBox="0 0 21.01 30.99"><defs><style>.cls-1{fill:#fff;fill-rule:evenodd;}</style></defs><title>weather_ballon</title><path class="cls-1" d="M20.77,11.24C20,14.8,17.5,16.62,15,19c-1.95,1.95-2.86,4.8-4,5.43a.74.74,0,0,1-.45.14h.09v5.64h0a.5.5,0,0,1,.4.25.27.27,0,0,1,0,.12.26.26,0,0,1,0,.11.57.57,0,0,1-.53.29h0A.57.57,0,0,1,10,30.7a.26.26,0,0,1,0-.11.27.27,0,0,1,0-.12.5.5,0,0,1,.4-.25h0V24.57h.09a.74.74,0,0,1-.45-.14C8.86,23.8,8,20.95,6,19c-2.5-2.37-5-4.2-5.77-7.76A9.57,9.57,0,0,1,0,8.94C0,5.68,1.48,0,10.5,0h0C19.53,0,21,5.68,21,8.94A9.57,9.57,0,0,1,20.77,11.24Z"/></svg>