<svg id="Layer_1" data-name="Layer 1" xmlns="http://www.w3.org/2000/svg" viewBox="0 0 30 7.4"><defs><style>.cls-1{fill:#fff;}</style></defs><title>x-15</title><path class="cls-1" d="M0,3.91c0-.11.28-.21,1.78-.54C2.63,3.19,3.58,3,4.11,3a5.92,5.92,0,0,1,1.35-.68,5.38,5.38,0,0,1,1.12-.1A20.52,20.52,0,0,1,10,2.57l12.48,0L24.18,0h4.21l0,2.71,1.34.16V3a.06.06,0,0,0,.11,0c0-.07.13-.08.13,0V5c0,.06-.11.05-.11,0a.05.05,0,0,0-.11,0,.83.83,0,0,1,0,.11s-.94.12-1.35.14c0,.44,0,2.1,0,2.1l-4.71,0-1.23-2s-16.27.34-20.7-.88C1.79,4.49,0,4.17,0,3.91Z"/></svg>